<svg width="30" height="31" viewBox="0 0 30 31" fill="none" xmlns="http://www.w3.org/2000/svg">
<path d="M10.96 8.68C12.6133 8.68 14.1067 9.04 15.44 9.76C16.7733 10.4533 17.8133 11.5067 18.56 12.92C19.3333 14.3333 19.72 16.0533 19.72 18.08V31H16.12V18.6C16.12 16.4133 15.5733 14.7467 14.48 13.6C13.3867 12.4267 11.8933 11.84 10 11.84C8.08 11.84 6.54667 12.44 5.4 13.64C4.28 14.84 3.72 16.5867 3.72 18.88V31H0.0800003V1.4H3.72V12.2C4.44 11.08 5.42667 10.2133 6.68 9.6C7.96 8.98667 9.38667 8.68 10.96 8.68ZM27.5459 5.52C26.8526 5.52 26.2659 5.28 25.7859 4.8C25.3059 4.32 25.0659 3.73333 25.0659 3.04C25.0659 2.34667 25.3059 1.76 25.7859 1.28C26.2659 0.799999 26.8526 0.559999 27.5459 0.559999C28.2126 0.559999 28.7726 0.799999 29.2259 1.28C29.7059 1.76 29.9459 2.34667 29.9459 3.04C29.9459 3.73333 29.7059 4.32 29.2259 4.8C28.7726 5.28 28.2126 5.52 27.5459 5.52ZM29.3059 9.08V31H25.6659V9.08H29.3059Z" fill="black"/>
</svg>
